<svg width="474" height="339" viewBox="0 0 474 339" fill="none" xmlns="http://www.w3.org/2000/svg">
<path d="M181.242 154V120.719H187.43V154H181.242ZM165.07 154V120.719H171.258V154H165.07ZM166.055 140.289V134.57H186.562V140.289H166.055ZM200.766 154.469C198.406 154.469 196.578 153.695 195.281 152.148C193.984 150.586 193.336 148.391 193.336 145.562V129.156H199.688V143.992C199.688 145.414 200.008 146.516 200.648 147.297C201.305 148.062 202.203 148.445 203.344 148.445C204.828 148.445 205.945 147.875 206.695 146.734C207.461 145.578 207.844 143.648 207.844 140.945L209.109 149.219H207.188C206.797 150.906 206.039 152.203 204.914 153.109C203.789 154.016 202.406 154.469 200.766 154.469ZM208.266 154.234L207.844 148.281V143.922H214.195V148.328L217.617 148.844V154L208.266 154.234ZM207.844 146.969V129.156H214.195V145.562L207.844 146.969ZM236.672 154V139.398C236.672 137.898 236.359 136.742 235.734 135.93C235.125 135.117 234.25 134.711 233.109 134.711C229.922 134.711 228.328 137.008 228.328 141.602L226.875 133.656H228.938C229.172 131.984 229.742 130.742 230.648 129.93C231.555 129.102 232.93 128.688 234.773 128.688C237.398 128.688 239.43 129.484 240.867 131.078C242.305 132.672 243.023 134.922 243.023 137.828V154H236.672ZM221.977 154V129.156H227.648L228.328 134.406V154H221.977ZM258.164 154.469C255.086 154.469 252.688 153.359 250.969 151.141C249.266 148.922 248.414 145.742 248.414 141.602C248.414 137.492 249.266 134.312 250.969 132.062C252.688 129.812 255.102 128.688 258.211 128.688C260.023 128.688 261.398 129.102 262.336 129.93C263.289 130.742 263.906 131.984 264.188 133.656H266.25L264.797 141.602C264.797 139.195 264.391 137.438 263.578 136.328C262.781 135.219 261.57 134.664 259.945 134.664C258.336 134.664 257.094 135.273 256.219 136.492C255.344 137.695 254.906 139.398 254.906 141.602C254.906 143.883 255.328 145.602 256.172 146.758C257.031 147.914 258.289 148.492 259.945 148.492C261.758 148.492 263.016 147.945 263.719 146.852C264.438 145.758 264.797 144.008 264.797 141.602L266.484 149.5H264.281C264.031 151.156 263.383 152.398 262.336 153.227C261.289 154.055 259.898 154.469 258.164 154.469ZM265.711 154.234L264.797 149.312V118.844H271.148V154L265.711 154.234ZM288.75 154.469C285.172 154.469 282.398 153.344 280.43 151.094C278.461 148.844 277.477 145.672 277.477 141.578C277.477 137.469 278.461 134.297 280.43 132.062C282.398 129.812 285.172 128.688 288.75 128.688C292.328 128.688 295.102 129.812 297.07 132.062C299.039 134.297 300.023 137.469 300.023 141.578C300.023 145.672 299.039 148.844 297.07 151.094C295.102 153.344 292.328 154.469 288.75 154.469ZM288.75 148.445C290.281 148.445 291.461 147.852 292.289 146.664C293.117 145.461 293.531 143.766 293.531 141.578C293.531 139.375 293.117 137.68 292.289 136.492C291.461 135.305 290.281 134.711 288.75 134.711C287.234 134.711 286.055 135.305 285.211 136.492C284.383 137.68 283.969 139.375 283.969 141.578C283.969 143.766 284.383 145.461 285.211 146.664C286.055 147.852 287.234 148.445 288.75 148.445Z" fill="#F60C00"/>
<path d="M282.939 259.131C311.686 248.118 335.765 227.542 351.126 200.864C366.487 174.185 372.194 143.031 367.287 112.64C362.379 82.2484 347.157 54.4736 324.18 33.9855C301.203 13.4974 271.872 1.54563 241.119 0.139795C210.366 -1.26604 180.067 7.95983 155.317 26.2661C130.566 44.5723 112.874 70.8425 105.214 100.659C97.5544 130.476 100.395 162.021 113.258 189.99C126.121 217.959 148.222 240.645 175.845 254.236L183.965 237.731C160.134 226.007 141.066 206.434 129.969 182.304C118.872 158.175 116.421 130.96 123.029 105.236C129.638 79.5119 144.902 56.8478 166.255 41.0544C187.608 25.261 213.748 17.3016 240.279 18.5145C266.811 19.7273 292.115 30.0385 311.939 47.7142C331.762 65.39 344.894 89.3522 349.128 115.572C353.362 141.791 348.438 168.669 335.186 191.685C321.933 214.702 301.16 232.453 276.358 241.955L282.939 259.131Z" fill="black"/>
<rect x="300.98" y="48.8871" width="6" height="30.571" transform="rotate(40.4646 300.98 48.8871)" fill="#FBB03B"/>
<rect width="6" height="30.571" transform="matrix(-0.760807 0.648979 0.648979 0.760807 165.173 49)" fill="#3AB54A"/>
<rect width="6" height="30.571" transform="matrix(-0.945093 0.326802 0.326802 0.945093 198.764 29.7666)" fill="#3AB54A"/>
<rect x="267.991" y="30" width="6" height="30.571" transform="rotate(19.0748 267.991 30)" fill="#3AB54A"/>
<path d="M236 24.429L230 24.429L230 55L236 55L236 24.429Z" fill="#3AB54A"/>
<rect x="326.475" y="76" width="6" height="30.571" transform="rotate(60 326.475 76)" fill="#FBB03B"/>
<rect width="6" height="30.571" transform="matrix(-0.5 0.866025 0.866025 0.5 139.678 76.1129)" fill="#3AB54A"/>
<rect x="340.043" y="112" width="6" height="30.571" transform="rotate(79.3399 340.043 112)" fill="#FE0000"/>
<rect width="6" height="30.571" transform="matrix(-0.184982 0.982742 0.982742 0.184982 126.11 112.113)" fill="#3AB54A"/>
<rect x="341.008" y="148.955" width="6" height="30.571" transform="rotate(95.5476 341.008 148.955)" fill="#FE0000"/>
<rect width="6" height="30.571" transform="matrix(0.0966719 0.995316 0.995316 -0.0966719 125.146 149.068)" fill="#3AB54A"/>
<rect x="329.475" y="186.286" width="6" height="30.571" transform="rotate(120 329.475 186.286)" fill="#FE0000"/>
<rect width="6" height="30.571" transform="matrix(0.5 0.866025 0.866025 -0.5 136.678 186.398)" fill="#3AB54A"/>
<rect x="306.026" y="216.637" width="6" height="30.571" transform="rotate(140.641 306.026 216.637)" fill="#FE0000"/>
<rect width="6" height="30.571" transform="matrix(0.77319 0.634175 0.634175 -0.77319 160.127 216.75)" fill="#3AB54A"/>
<path d="M12.5016 299.659L8.06338 293.271L37.7142 263.217L42.0952 269.912L12.5016 299.659ZM6.67503 300.737L8.06338 293.271L37.3734 298.722L35.985 306.187L6.67503 300.737ZM13.3997 264.576L14.788 257.11L43.4836 262.446L42.0952 269.912L13.3997 264.576Z" fill="black"/>
<path d="M66.3514 311.572C60.6841 310.732 56.5216 308.62 53.8639 305.236C51.2093 301.831 50.2896 297.377 51.1048 291.875C51.8987 286.516 53.8241 282.547 56.881 279.968C59.9586 277.391 63.8879 276.457 68.669 277.165C73.3471 277.858 76.7609 279.764 78.9102 282.884C81.0596 286.004 81.7465 290.181 80.9709 295.415C80.7511 296.899 80.4801 298.301 80.158 299.623L56.108 296.059L56.9691 290.248L72.9818 292.62C73.3085 290.415 72.9921 288.641 72.0327 287.299C71.0939 285.959 69.6147 285.14 67.595 284.841C65.4105 284.517 63.5943 285.048 62.1464 286.434C60.7221 287.803 59.7977 289.919 59.3733 292.784C58.9153 295.875 59.4534 298.356 60.9876 300.226C62.5423 302.099 64.9684 303.28 68.2657 303.768C69.7495 303.988 71.2234 304.133 72.6874 304.202C74.1544 304.251 75.66 304.253 77.2041 304.208L76.8353 312.241C74.6783 312.3 72.7266 312.253 70.9802 312.1C69.2339 311.946 67.6909 311.77 66.3514 311.572Z" fill="black"/>
<path d="M106.983 301.819L106.313 290.269L109.139 290.582C110.065 285.256 113.168 282.885 118.448 283.47C121.574 283.816 123.839 285.23 125.241 287.712C126.663 290.197 127.135 293.603 126.656 297.93L118.269 297.001C118.485 295.055 118.277 293.617 117.647 292.688C117.037 291.761 115.945 291.21 114.371 291.036C112.321 290.809 110.679 291.633 109.444 293.509C108.209 295.384 107.389 298.154 106.983 301.819ZM90.0704 314.283L90.8686 307.077L113.915 309.63L113.117 316.836L90.0704 314.283ZM97.0278 315.054L100.675 282.13L107.818 282.921L108.015 292.501L105.414 315.983L97.0278 315.054ZM94.1615 288.703L94.9596 281.497L107.384 282.873L107.207 290.148L94.1615 288.703Z" fill="black"/>
<path d="M149.783 320.735C145.025 320.384 141.447 318.617 139.049 315.432C136.652 312.247 135.654 307.933 136.055 302.489C136.457 297.025 138.077 292.904 140.914 290.125C143.752 287.326 147.55 286.102 152.308 286.453C157.066 286.803 160.644 288.571 163.041 291.756C165.44 294.92 166.439 299.234 166.036 304.698C165.635 310.142 164.015 314.263 161.177 317.062C158.339 319.861 154.54 321.085 149.783 320.735ZM150.373 312.725C152.409 312.875 154.036 312.201 155.253 310.703C156.472 309.185 157.189 306.971 157.403 304.062C157.619 301.133 157.235 298.838 156.25 297.178C155.265 295.517 153.754 294.612 151.718 294.462C149.703 294.314 148.076 294.988 146.838 296.484C145.62 297.982 144.904 300.196 144.688 303.125C144.473 306.034 144.858 308.329 145.841 310.01C146.847 311.672 148.357 312.577 150.373 312.725Z" fill="black"/>
<path d="M243.311 323.935C237.602 323.935 233.477 322.789 230.936 320.498C228.394 318.206 227.123 314.539 227.123 309.498V305.185H235.561V308.685C235.561 311.206 236.206 313.039 237.498 314.185C238.811 315.331 240.956 315.904 243.936 315.904C244.894 315.904 245.915 315.852 246.998 315.748C248.102 315.623 249.352 315.466 250.748 315.279L251.498 323.185C250.123 323.435 248.779 323.623 247.467 323.748C246.175 323.873 244.79 323.935 243.311 323.935ZM227.123 307.154L227.123 280.185H235.561L235.561 307.154H227.123ZM219.186 297.966V290.185H250.248L250.248 297.966H219.186Z" fill="black"/>
<path d="M279.557 323.149C274.79 323.324 271.039 321.961 268.306 319.059C265.572 316.158 264.105 311.98 263.904 306.525C263.703 301.05 264.859 296.775 267.373 293.702C269.886 290.607 273.526 288.972 278.294 288.797C283.061 288.621 286.812 289.984 289.545 292.886C292.278 295.767 293.745 299.945 293.947 305.42C294.147 310.875 292.991 315.149 290.478 318.244C287.965 321.338 284.325 322.973 279.557 323.149ZM279.262 315.123C281.302 315.048 282.845 314.199 283.89 312.576C284.935 310.932 285.403 308.653 285.296 305.738C285.188 302.803 284.553 300.564 283.392 299.023C282.23 297.481 280.629 296.748 278.589 296.823C276.569 296.897 275.027 297.746 273.961 299.369C272.915 300.992 272.447 303.272 272.555 306.207C272.662 309.122 273.297 311.36 274.459 312.923C275.642 314.464 277.243 315.197 279.262 315.123Z" fill="black"/>
<path d="M362.644 316.537L357.758 272.431L365.958 271.523L370.844 315.628L362.644 316.537ZM351.928 317.724L351.123 310.456L362.46 309.2L363.265 316.468L351.928 317.724ZM370.222 315.697L369.417 308.429L379.574 307.304L380.379 314.572L370.222 315.697ZM348.944 285.104L348.077 277.277L357.758 272.431L358.639 280.383L348.944 285.104Z" fill="black"/>
<path d="M408.809 311.26C398.485 312.79 392.223 306.136 390.025 291.298C387.765 276.048 391.798 267.658 402.123 266.128C412.447 264.598 418.739 271.459 420.999 286.709C423.197 301.547 419.134 309.731 408.809 311.26ZM406.288 294.67C405.052 294.853 403.976 294.486 403.061 293.568C402.166 292.648 401.592 291.332 401.339 289.622C401.085 287.911 401.253 286.486 401.842 285.345C402.452 284.202 403.375 283.539 404.612 283.356C405.848 283.172 406.924 283.539 407.839 284.457C408.754 285.374 409.339 286.688 409.592 288.399C409.846 290.109 409.667 291.536 409.058 292.68C408.448 293.823 407.525 294.486 406.288 294.67ZM407.655 303.47C412.354 302.774 413.989 297.604 412.56 287.959C411.07 277.902 407.975 273.222 403.277 273.918C398.496 274.626 396.85 280.009 398.34 290.066C399.769 299.711 402.874 304.179 407.655 303.47Z" fill="black"/>
<path d="M451.505 304.14C441.243 306.048 434.741 299.628 431.999 284.881C429.18 269.724 432.902 261.192 443.163 259.284C453.425 257.375 459.965 264 462.783 279.156C465.526 293.904 461.766 302.231 451.505 304.14ZM448.375 287.653C447.146 287.881 446.058 287.554 445.109 286.671C444.182 285.784 443.56 284.49 443.243 282.79C442.927 281.09 443.043 279.659 443.59 278.498C444.157 277.333 445.055 276.636 446.284 276.408C447.513 276.179 448.602 276.507 449.55 277.39C450.498 278.273 451.13 279.565 451.447 281.265C451.763 282.965 451.637 284.397 451.07 285.562C450.502 286.727 449.604 287.424 448.375 287.653ZM450.065 296.397C454.735 295.529 456.179 290.302 454.396 280.716C452.537 270.721 449.273 266.157 444.603 267.026C439.851 267.909 438.405 273.349 440.263 283.344C442.046 292.93 445.313 297.281 450.065 296.397Z" fill="black"/>
</svg>
