<svg width="606" height="98" viewBox="0 0 606 98" fill="none" xmlns="http://www.w3.org/2000/svg">
<path d="M183.273 32.8082L229.164 12.845L229.164 26.3567L183.273 43.7636L183.273 32.8082Z" fill="white"/>
<path d="M229.164 50.7021L183.273 32.8082L183.273 46.3199L229.164 64.0921L229.164 50.7021Z" fill="white"/>
<path d="M309.504 32.8082L263.613 12.845L263.613 26.3567L309.504 43.7636L309.504 32.8082Z" fill="white"/>
<path d="M263.613 50.7021L309.504 32.8082L309.504 46.3199L263.613 64.0921L263.613 50.7021Z" fill="white"/>
<path d="M249.477 3.1051H259.412L242.934 72.9518H232.999L249.477 3.1051Z" fill="white"/>
<path d="M3.86719 52L0.234375 18.7188H5.85938L8.20312 47.1953H8.78906L11.5078 27.1562H16.6641L14.8594 32.8516H13.9219L11.8125 52H3.86719ZM16.3125 52L14.2031 32.8516H13.2656L11.5078 27.1562H16.6641L19.3359 47.1953H19.9219L22.2656 18.7188H27.8906L24.2578 52H16.3125ZM44.2266 52.4688C39.9609 52.4688 36.6641 51.3594 34.3359 49.1406C32.0078 46.9062 30.8438 43.7031 30.8438 39.5312C30.8438 35.4688 31.8281 32.3125 33.7969 30.0625C35.7812 27.8125 38.5703 26.6875 42.1641 26.6875C45.6328 26.6875 48.3125 27.7188 50.2031 29.7812C52.1094 31.8438 53.0625 34.8359 53.0625 38.7578C53.0625 39.8984 53.0156 40.9688 52.9219 41.9688H35.0156V37.7969H47.5312C47.5312 35.9062 47.0625 34.4531 46.125 33.4375C45.1875 32.4219 43.8828 31.9141 42.2109 31.9141C40.3828 31.9141 38.9609 32.5547 37.9453 33.8359C36.9297 35.1172 36.4219 36.9375 36.4219 39.2969C36.4219 41.8438 37.1484 43.7891 38.6016 45.1328C40.0547 46.4609 42.1172 47.125 44.7891 47.125C45.8828 47.125 46.9531 47.0703 48 46.9609C49.0625 46.8359 50.1406 46.6719 51.2344 46.4688L51.8438 51.8125C50.3125 52.0938 48.9062 52.2734 47.625 52.3516C46.3438 52.4297 45.2109 52.4688 44.2266 52.4688ZM68.3906 52.4688C66.5 52.4688 64.8516 52.4062 63.4453 52.2812C62.0391 52.1719 60.7812 52 59.6719 51.7656L60.3516 46.3281C62.1797 46.5781 63.75 46.7656 65.0625 46.8906C66.375 47.0156 67.4844 47.0781 68.3906 47.0781C70.6719 47.0781 72.3203 46.8906 73.3359 46.5156C74.3672 46.1406 74.8828 45.5469 74.8828 44.7344C74.8828 44.2188 74.7344 43.8203 74.4375 43.5391C74.1406 43.2578 73.6719 43.0312 73.0312 42.8594L65.8828 40.8672C63.9141 40.3203 62.4453 39.5703 61.4766 38.6172C60.5234 37.6484 60.0469 36.2891 60.0469 34.5391C60.0469 31.8516 61.1328 29.875 63.3047 28.6094C65.4922 27.3281 68.8906 26.6875 73.5 26.6875C74.625 26.6875 75.7344 26.7266 76.8281 26.8047C77.9375 26.8828 79.0938 27 80.2969 27.1562L79.6875 32.4062C78.3281 32.2812 77.1328 32.1953 76.1016 32.1484C75.0859 32.1016 74.1719 32.0781 73.3594 32.0781C70.7812 32.0781 68.9062 32.2578 67.7344 32.6172C66.5781 32.9766 66 33.5547 66 34.3516C66 34.8828 66.1719 35.2734 66.5156 35.5234C66.8594 35.7734 67.3906 35.9922 68.1094 36.1797L74.1094 37.7969C76.4375 38.3906 78.1562 39.2266 79.2656 40.3047C80.3906 41.3828 80.9531 42.8516 80.9531 44.7109C80.9531 47.3672 79.9297 49.3281 77.8828 50.5938C75.8516 51.8438 72.6875 52.4688 68.3906 52.4688ZM102.141 52.4688C99.1094 52.4688 96.9219 51.6406 95.5781 49.9844C94.25 48.3281 93.5859 45.6797 93.5859 42.0391V16.8438H99.3516V41.8047C99.3516 42.9453 99.4688 43.8828 99.7031 44.6172C99.9375 45.3359 100.383 45.8672 101.039 46.2109C101.711 46.5547 102.703 46.7266 104.016 46.7266C105.359 46.7266 107.062 46.4297 109.125 45.8359L109.781 51.4844C108.484 51.8281 107.227 52.0781 106.008 52.2344C104.805 52.3906 103.516 52.4688 102.141 52.4688ZM86.4375 22.0938V16.8438H94.0078V22.0938H86.4375ZM128.602 52.4688C124.336 52.4688 121.039 51.3594 118.711 49.1406C116.383 46.9062 115.219 43.7031 115.219 39.5312C115.219 35.4688 116.203 32.3125 118.172 30.0625C120.156 27.8125 122.945 26.6875 126.539 26.6875C130.008 26.6875 132.688 27.7188 134.578 29.7812C136.484 31.8438 137.438 34.8359 137.438 38.7578C137.438 39.8984 137.391 40.9688 137.297 41.9688H119.391V37.7969H131.906C131.906 35.9062 131.438 34.4531 130.5 33.4375C129.562 32.4219 128.258 31.9141 126.586 31.9141C124.758 31.9141 123.336 32.5547 122.32 33.8359C121.305 35.1172 120.797 36.9375 120.797 39.2969C120.797 41.8438 121.523 43.7891 122.977 45.1328C124.43 46.4609 126.492 47.125 129.164 47.125C130.258 47.125 131.328 47.0703 132.375 46.9609C133.438 46.8359 134.516 46.6719 135.609 46.4688L136.219 51.8125C134.688 52.0938 133.281 52.2734 132 52.3516C130.719 52.4297 129.586 52.4688 128.602 52.4688ZM142.148 63.25L141.914 58.1641L146.039 57.6953C147.57 57.5078 148.883 57.0938 149.977 56.4531C151.07 55.8125 152.008 54.8594 152.789 53.5938C153.57 52.3281 154.25 50.6719 154.828 48.625L160.898 27.1562H166.992L159.938 49.7969C159 52.7812 157.93 55.1797 156.727 56.9922C155.539 58.8047 154.125 60.1641 152.484 61.0703C150.844 61.9766 148.883 62.5469 146.602 62.7812L142.148 63.25ZM150.633 52L141.68 27.1562H147.773L154.711 47.2656H155.695V52H150.633Z" fill="white"/>
<path d="M333.914 51.4688C332.023 51.4688 330.211 51.3125 328.477 51C326.758 50.6875 325.195 50.2344 323.789 49.6406L324.539 43.9453C326.258 44.6797 327.945 45.2422 329.602 45.6328C331.258 46.0078 332.82 46.1953 334.289 46.1953C336.164 46.1953 337.578 45.8672 338.531 45.2109C339.5 44.5391 339.984 43.5625 339.984 42.2812C339.984 40.6094 339.031 39.3359 337.125 38.4609L331.945 36C329.617 34.9062 327.82 33.5547 326.555 31.9453C325.305 30.3359 324.68 28.4844 324.68 26.3906C324.68 23.4844 325.602 21.2344 327.445 19.6406C329.305 18.0469 331.93 17.25 335.32 17.25C337.445 17.25 339.398 17.6016 341.18 18.3047C342.977 18.9922 344.617 20.0391 346.102 21.4453L342.234 25.7109C341.031 24.6484 339.859 23.8516 338.719 23.3203C337.594 22.7734 336.469 22.5 335.344 22.5C333.875 22.5 332.734 22.8359 331.922 23.5078C331.109 24.1641 330.703 25.125 330.703 26.3906C330.703 27.2656 330.977 28.0391 331.523 28.7109C332.086 29.3672 332.891 29.9609 333.938 30.4922L338.602 32.8125C340.992 34 342.82 35.375 344.086 36.9375C345.367 38.4844 346.008 40.2734 346.008 42.3047C346.008 45.2891 344.977 47.5625 342.914 49.125C340.867 50.6875 337.867 51.4688 333.914 51.4688ZM363.188 51.4688C359.672 51.4688 356.938 50.3438 354.984 48.0938C353.047 45.8438 352.078 42.6719 352.078 38.5781C352.078 34.4688 353.047 31.2969 354.984 29.0625C356.938 26.8125 359.672 25.6875 363.188 25.6875C366.719 25.6875 369.453 26.8125 371.391 29.0625C373.328 31.2969 374.297 34.4688 374.297 38.5781C374.297 42.6719 373.328 45.8438 371.391 48.0938C369.453 50.3438 366.719 51.4688 363.188 51.4688ZM363.188 46.0781C364.844 46.0781 366.117 45.4297 367.008 44.1328C367.898 42.8203 368.344 40.9688 368.344 38.5781C368.344 36.1719 367.891 34.3203 366.984 33.0234C366.094 31.7266 364.828 31.0781 363.188 31.0781C361.547 31.0781 360.273 31.7266 359.367 33.0234C358.477 34.3203 358.031 36.1719 358.031 38.5781C358.031 40.9688 358.477 42.8203 359.367 44.1328C360.273 45.4297 361.547 46.0781 363.188 46.0781ZM390.023 40.3125L388.57 32.0625H390.633C390.898 27.8125 393.078 25.6875 397.172 25.6875C399.609 25.6875 401.438 26.5 402.656 28.125C403.875 29.75 404.484 32.2031 404.484 35.4844H398.719C398.719 33.875 398.445 32.7188 397.898 32.0156C397.367 31.3125 396.508 30.9609 395.32 30.9609C393.539 30.9609 392.211 31.7734 391.336 33.3984C390.461 35.0234 390.023 37.3281 390.023 40.3125ZM378.891 51V45.9844H395.953V51H378.891ZM384.258 51V26.1562H389.086L390.023 33.2812V51H384.258ZM379.828 31.1719V26.1562H388.758L389.227 31.1719H379.828ZM418.148 40.3125L416.695 32.0625H418.758C419.023 27.8125 421.203 25.6875 425.297 25.6875C427.734 25.6875 429.562 26.5 430.781 28.125C432 29.75 432.609 32.2031 432.609 35.4844H426.844C426.844 33.875 426.57 32.7188 426.023 32.0156C425.492 31.3125 424.633 30.9609 423.445 30.9609C421.664 30.9609 420.336 31.7734 419.461 33.3984C418.586 35.0234 418.148 37.3281 418.148 40.3125ZM407.016 51V45.9844H424.078V51H407.016ZM412.383 51V26.1562H417.211L418.148 33.2812V51H412.383ZM407.953 31.1719V26.1562H416.883L417.352 31.1719H407.953ZM449.602 51.4688C445.336 51.4688 442.039 50.3594 439.711 48.1406C437.383 45.9062 436.219 42.7031 436.219 38.5312C436.219 34.4688 437.203 31.3125 439.172 29.0625C441.156 26.8125 443.945 25.6875 447.539 25.6875C451.008 25.6875 453.688 26.7188 455.578 28.7812C457.484 30.8438 458.438 33.8359 458.438 37.7578C458.438 38.8984 458.391 39.9688 458.297 40.9688H440.391V36.7969H452.906C452.906 34.9062 452.438 33.4531 451.5 32.4375C450.562 31.4219 449.258 30.9141 447.586 30.9141C445.758 30.9141 444.336 31.5547 443.32 32.8359C442.305 34.1172 441.797 35.9375 441.797 38.2969C441.797 40.8438 442.523 42.7891 443.977 44.1328C445.43 45.4609 447.492 46.125 450.164 46.125C451.258 46.125 452.328 46.0703 453.375 45.9609C454.438 45.8359 455.516 45.6719 456.609 45.4688L457.219 50.8125C455.688 51.0938 454.281 51.2734 453 51.3516C451.719 51.4297 450.586 51.4688 449.602 51.4688ZM480.258 51V35.7656C480.258 34.2656 479.914 33.1094 479.227 32.2969C478.539 31.4844 477.57 31.0781 476.32 31.0781C472.852 31.0781 471.117 33.375 471.117 37.9688L469.664 30.6562H471.68C471.867 28.9844 472.445 27.7422 473.414 26.9297C474.398 26.1016 475.859 25.6875 477.797 25.6875C480.422 25.6875 482.453 26.4844 483.891 28.0781C485.328 29.6719 486.047 31.9219 486.047 34.8281V51H480.258ZM465.328 51V26.1562H470.531L471.117 31.4062V51H465.328ZM508.781 51.4688C504.703 51.4688 501.758 50.6406 499.945 48.9844C498.133 47.3281 497.227 44.6797 497.227 41.0391V37.4062H502.992V40.5703C502.992 42.4922 503.477 43.8906 504.445 44.7656C505.43 45.6406 507.031 46.0781 509.25 46.0781C509.984 46.0781 510.773 46.0391 511.617 45.9609C512.461 45.8672 513.422 45.75 514.5 45.6094L515.062 50.9062C514.016 51.0938 512.984 51.2344 511.969 51.3281C510.969 51.4219 509.906 51.4688 508.781 51.4688ZM497.227 39.0469V18.6562H502.992V39.0469H497.227ZM491.156 31.4062V26.1562H514.125V31.4062H491.156ZM530.695 51V27.5625H536.461V51H530.695ZM521.391 51V45.75H531.164V51H521.391ZM535.992 51V45.75H543.938V51H535.992ZM522.797 31.4062V26.1562H536.461V31.4062H522.797ZM533.344 22.5703C532.234 22.5703 531.32 22.2109 530.602 21.4922C529.883 20.7734 529.523 19.8594 529.523 18.75C529.523 17.6406 529.883 16.7266 530.602 16.0078C531.32 15.2891 532.234 14.9297 533.344 14.9297C534.453 14.9297 535.367 15.2891 536.086 16.0078C536.805 16.7266 537.164 17.6406 537.164 18.75C537.164 19.8594 536.805 20.7734 536.086 21.4922C535.367 22.2109 534.453 22.5703 533.344 22.5703ZM564.633 51V35.7656C564.633 34.2656 564.289 33.1094 563.602 32.2969C562.914 31.4844 561.945 31.0781 560.695 31.0781C557.227 31.0781 555.492 33.375 555.492 37.9688L554.039 30.6562H556.055C556.242 28.9844 556.82 27.7422 557.789 26.9297C558.773 26.1016 560.234 25.6875 562.172 25.6875C564.797 25.6875 566.828 26.4844 568.266 28.0781C569.703 29.6719 570.422 31.9219 570.422 34.8281V51H564.633ZM549.703 51V26.1562H554.906L555.492 31.4062V51H549.703ZM588.188 51.4688C584.672 51.4688 581.938 50.3438 579.984 48.0938C578.047 45.8438 577.078 42.6719 577.078 38.5781C577.078 34.4688 578.047 31.2969 579.984 29.0625C581.938 26.8125 584.672 25.6875 588.188 25.6875C591.719 25.6875 594.453 26.8125 596.391 29.0625C598.328 31.2969 599.297 34.4688 599.297 38.5781C599.297 42.6719 598.328 45.8438 596.391 48.0938C594.453 50.3438 591.719 51.4688 588.188 51.4688ZM588.188 46.0781C589.844 46.0781 591.117 45.4297 592.008 44.1328C592.898 42.8203 593.344 40.9688 593.344 38.5781C593.344 36.1719 592.891 34.3203 591.984 33.0234C591.094 31.7266 589.828 31.0781 588.188 31.0781C586.547 31.0781 585.273 31.7266 584.367 33.0234C583.477 34.3203 583.031 36.1719 583.031 38.5781C583.031 40.9688 583.477 42.8203 584.367 44.1328C585.273 45.4297 586.547 46.0781 588.188 46.0781Z" fill="white"/>
</svg>
