<svg width="248" height="69" viewBox="0 0 248 69" fill="none" xmlns="http://www.w3.org/2000/svg">
<rect width="230" height="69" rx="7" fill="#5447F5"/>
<path d="M18.6 47.712L18.792 57.376C18.792 58.6987 18.4933 59.5947 17.896 60.064C17.2987 60.5333 16.744 60.768 16.232 60.768C15.72 60.768 15.2293 60.704 14.76 60.576C14.2053 56.0107 13.928 51.552 13.928 47.2C13.928 42.848 14.056 37.92 14.312 32.416C14.6107 26.912 14.7813 22.56 14.824 19.36C14.824 15.9467 19.3893 14.24 28.52 14.24C33.3413 14.24 37.8853 15.2427 42.152 17.248C44.3707 18.272 46.184 19.7227 47.592 21.6C49 23.4347 49.704 25.504 49.704 27.808C49.704 30.0693 49.192 32.1173 48.168 33.952C47.144 35.7867 45.8427 37.3227 44.264 38.56C42.6853 39.7547 40.872 40.8 38.824 41.696C35.4533 43.232 31.6987 44.256 27.56 44.768C29.608 45.92 32.936 48.6933 37.544 53.088C38.9093 54.4107 40.6373 55.6053 42.728 56.672C44.8187 57.696 46.9733 58.208 49.192 58.208C49.4053 58.208 49.8533 58.1653 50.536 58.08C51.2187 57.952 51.7947 57.8667 52.264 57.824C52.7333 57.7813 53.16 57.888 53.544 58.144C53.9707 58.3573 54.184 58.7627 54.184 59.36C54.184 60.8107 52.3707 61.536 48.744 61.536C44.52 61.536 40.3173 59.9147 36.136 56.672C34.3013 55.3067 32.5093 53.8987 30.76 52.448C26.4507 48.8213 22.4187 46.5387 18.664 45.6C18.6213 45.984 18.6 46.688 18.6 47.712ZM44.904 28.576C44.904 24.992 43.2827 22.304 40.04 20.512C36.84 18.6773 32.7653 17.76 27.816 17.76C24.7013 17.76 21.8 18.1013 19.112 18.784C19.112 22.1547 19.0053 25.9093 18.792 30.048C18.5787 34.144 18.472 36.96 18.472 38.496C18.472 40.032 18.4933 41.1627 18.536 41.888C24.8507 41.4187 29.736 40.672 33.192 39.648C36.904 38.5813 39.6773 37.2587 41.512 35.68C43.7733 33.7173 44.904 31.3493 44.904 28.576Z" fill="#FFDF36"/>
<path d="M124.992 52.576C124.309 54.5387 122.987 56.2027 121.024 57.568C119.104 58.9333 116.992 59.616 114.688 59.616C112.427 59.616 110.656 58.4853 109.376 56.224C108.139 53.92 107.52 50.7413 107.52 46.688C107.52 35.2533 109.205 29.536 112.576 29.536C113.003 29.536 113.536 29.6 114.176 29.728C114.048 30.4107 113.749 31.712 113.28 33.632C112.341 37.3867 111.872 40.6933 111.872 43.552C111.872 46.4107 112.277 49.44 113.088 52.64C113.899 55.7973 115.051 57.376 116.544 57.376C117.312 57.376 118.059 56.8853 118.784 55.904C119.509 54.9227 120.085 53.8987 120.512 52.832C120.939 51.7227 121.387 50.464 121.856 49.056C122.325 47.648 122.624 46.7947 122.752 46.496C122.112 44.0213 121.792 41.504 121.792 38.944C121.792 38.816 121.792 38.432 121.792 37.792C121.792 37.1093 121.813 36.448 121.856 35.808C121.899 35.168 122.027 34.4 122.24 33.504C122.667 31.712 123.819 30.816 125.696 30.816C127.275 30.816 128.064 33.2053 128.064 37.984C128.064 38.8373 127.936 40.0747 127.68 41.696C127.467 43.3173 127.36 44.448 127.36 45.088C127.36 47.0507 128.299 49.5893 130.176 52.704C132.053 55.8187 133.803 57.376 135.424 57.376C137.088 57.376 138.304 56.4373 139.072 54.56C139.84 52.6827 140.224 50.592 140.224 48.288C140.224 45.6427 139.989 43.6373 139.52 42.272C139.093 40.864 138.816 39.9467 138.688 39.52C138.603 39.0933 138.325 38.432 137.856 37.536C137.429 36.5973 137.152 36 137.024 35.744C136.939 35.488 136.619 34.8693 136.064 33.888C135.509 32.9067 135.189 32.352 135.104 32.224C133.867 30.048 133.141 28.8533 132.928 28.64C133.995 27.744 134.976 27.296 135.872 27.296C138.475 29.1733 140.544 32.2453 142.08 36.512C143.616 40.736 144.384 44.5973 144.384 48.096C144.384 51.552 143.637 54.2827 142.144 56.288C140.693 58.2507 138.411 59.232 135.296 59.232C133.12 59.232 131.051 58.6347 129.088 57.44C127.168 56.2027 125.803 54.5813 124.992 52.576ZM155.32 12.896C155.277 13.8773 155.256 14.9653 155.256 16.16C155.256 17.3547 155.32 18.592 155.448 19.872C154.851 20.5547 154.04 20.896 153.016 20.896C151.736 20.896 151.096 19.872 151.096 17.824C151.096 17.7387 151.096 17.4187 151.096 16.864C151.096 16.3093 151.096 15.8187 151.096 15.392C151.139 14.9227 151.224 14.3893 151.352 13.792C151.651 12.768 152.312 12.256 153.336 12.256C154.36 12.256 155.021 12.4693 155.32 12.896ZM151.224 44.256C151.224 35.8933 151.651 31.072 152.504 29.792C152.803 29.3227 153.165 29.088 153.592 29.088C154.019 29.088 154.723 29.3227 155.704 29.792C155.491 33.4187 155.384 37.3653 155.384 41.632C155.384 41.632 155.427 46.3467 155.512 55.776C155.512 57.0987 155.213 58.0373 154.616 58.592C154.061 59.104 153.528 59.36 153.016 59.36C152.547 59.36 152.056 59.232 151.544 58.976C151.331 53.4293 151.224 48.5227 151.224 44.256ZM189.893 58.208C189.125 59.0187 188.25 59.424 187.269 59.424C185.434 59.424 184.069 58.4427 183.173 56.48C182.277 54.5173 181.743 52.128 181.573 49.312C181.445 46.496 181.359 43.68 181.317 40.864C181.274 38.048 181.039 35.6587 180.613 33.696C180.229 31.7333 179.482 30.752 178.373 30.752C176.879 30.752 175.599 32.096 174.533 34.784C173.509 37.472 172.783 40.4587 172.357 43.744C171.162 52.9173 170.01 58.0587 168.901 59.168C168.133 59.552 167.471 59.744 166.917 59.744C166.362 59.744 165.893 59.68 165.509 59.552C164.613 55.6267 164.037 48.864 163.781 39.264C163.695 34.4853 163.61 31.392 163.525 29.984C164.421 29.3867 165.189 29.088 165.829 29.088C166.469 29.088 166.981 29.152 167.365 29.28C167.578 31.1147 167.685 34.8693 167.685 40.544C167.727 46.2187 167.77 49.4827 167.812 50.336C168.026 49.44 168.282 47.9893 168.581 45.984C168.922 43.9787 169.221 42.336 169.477 41.056C169.733 39.7333 170.138 38.1973 170.693 36.448C171.247 34.6987 171.866 33.312 172.549 32.288C173.231 31.2213 174.17 30.3253 175.365 29.6C176.559 28.832 177.903 28.448 179.397 28.448C181.402 28.448 182.853 29.3653 183.749 31.2C184.687 32.992 185.199 35.232 185.285 37.92C185.37 40.608 185.413 43.3387 185.413 46.112C185.455 48.8853 185.797 51.424 186.437 53.728C187.119 56.032 188.271 57.5253 189.893 58.208ZM218.09 8.736C216.469 23.4133 215.658 33.888 215.658 40.16C215.658 46.3893 216.234 52.6187 217.386 58.848C216.533 59.7013 215.786 60.128 215.146 60.128C214.506 60.128 213.973 60.0427 213.546 59.872C212.65 56.7147 212.117 53.28 211.946 49.568C210.922 51.1893 210.154 52.3413 209.642 53.024C209.173 53.7067 208.341 54.7093 207.146 56.032C204.97 58.592 202.389 59.872 199.402 59.872C197.141 59.872 195.498 58.8267 194.474 56.736C193.493 54.6027 193.002 51.8933 193.002 48.608C193.002 45.28 193.365 42.1227 194.09 39.136C194.858 36.1067 196.159 33.504 197.994 31.328C199.829 29.1093 202.09 28 204.778 28C206.399 28 207.893 28.3413 209.258 29.024C210.623 29.7067 211.562 30.624 212.074 31.776C212.159 30.624 212.245 28.8533 212.33 26.464C212.415 24.0747 212.501 21.9627 212.586 20.128C212.714 18.2507 212.906 16.352 213.162 14.432C213.631 10.336 214.677 8.288 216.298 8.288C216.853 8.288 217.45 8.43733 218.09 8.736ZM210.602 34.08C210.09 33.1413 209.386 32.4587 208.49 32.032C207.594 31.5627 206.399 31.328 204.906 31.328C203.455 31.328 202.09 32.16 200.81 33.824C198.293 37.1093 197.034 41.8667 197.034 48.096C197.034 50.1013 197.354 52.1067 197.994 54.112C198.634 56.0747 199.573 57.056 200.81 57.056C202.602 57.056 204.351 55.8827 206.058 53.536C207.765 51.1893 209.087 48.5013 210.026 45.472C210.965 42.4 211.434 39.648 211.434 37.216C211.434 36.064 211.157 35.0187 210.602 34.08Z" fill="#FFDF36"/>
<path d="M72.7204 40.4685C70.451 38.8009 70.5695 35.3727 72.9487 33.8658L91.7316 21.97C94.4213 20.2665 97.9264 22.2353 97.8712 25.4186L97.4312 50.7924C97.3749 54.0383 93.6794 55.8687 91.0633 53.9465L72.7204 40.4685Z" fill="#FFDF36"/>
<path d="M57.7947 40.5718C55.5252 38.9042 55.6437 35.476 58.0229 33.9691L76.8058 22.0733C79.4955 20.3698 83.0006 22.3387 82.9454 25.5219L82.5054 50.8957C82.4491 54.1416 78.7536 55.972 76.1375 54.0498L57.7947 40.5718Z" fill="#FFDF36"/>
</svg>
